<?xml version="1.0" encoding="utf-8"?>
<!-- Generator: Adobe Illustrator 22.1.0, SVG Export Plug-In . SVG Version: 6.00 Build 0)  -->
<svg version="1.1" id="Слой_1" xmlns="http://www.w3.org/2000/svg" xmlns:xlink="http://www.w3.org/1999/xlink" x="0px" y="0px"
	 viewBox="0 0 194.8 46.2" style="enable-background:new 0 0 194.8 46.2;" xml:space="preserve">
<style type="text/css">
	.st0{fill:#FCC153;}
	.st1{fill:#01142F;}
</style>
<title>Коллегия адвокатов «Шабанов и партнеры»</title>
<rect x="2.8" y="12.7" class="st0" width="35.6" height="24"/>
<g>
	<path class="st1" d="M70.7,6.8h-3.4c-0.3,0-0.5,0.2-0.5,0.5V23h-5V7.3c0-0.3-0.2-0.5-0.5-0.5H58c-0.3,0-0.5,0.2-0.5,0.5V23h-5V7.2
		c0-0.3-0.2-0.5-0.5-0.5h-3.4c-0.2,0-0.4,0.1-0.5,0.3c0,0.1,0,0.2,0,0.3v19.4c0,0.3,0.2,0.5,0.5,0.5h22.2c0.3,0,0.5-0.2,0.5-0.5V7.3
		C71.2,7,71,6.8,70.7,6.8z"/>
	<path class="st1" d="M93.8,27c0.1-0.1,0.1-0.3,0-0.5L85.6,7c-0.1-0.2-0.3-0.3-0.5-0.3h-3c-0.1,0-0.2,0-0.2,0.1
		c-0.1,0.1-0.2,0.1-0.2,0.3l-8.2,19.6c-0.1,0.2,0,0.3,0,0.5c0.1,0.1,0.2,0.2,0.4,0.2h3.4c0.2,0,0.4-0.1,0.5-0.3l1.9-4.7h7.7l1.9,4.7
		c0.1,0.2,0.3,0.3,0.5,0.3h3.6C93.5,27.2,93.7,27.1,93.8,27z M81.4,18.1l2.1-5l2.1,5H81.4z"/>
	<path class="st1" d="M109.4,20.4c0-3.9-2.7-6.4-7.1-6.4c-0.7,0-1.4,0-2.1,0.1v-3.2h7.4c0.3,0,0.5-0.2,0.5-0.5V7.2
		c0-0.3-0.2-0.5-0.5-0.5H96.3c-0.3,0-0.5,0.2-0.5,0.5v19.4c0,0.3,0.2,0.5,0.5,0.5c0.5,0,1,0,1.7,0c0.9,0,2,0.1,3.4,0.1
		C106.5,27.3,109.4,24.8,109.4,20.4z M100.2,23.1v-4.6c0.6-0.1,1.2-0.1,1.8-0.1c1.9,0,2.9,0.8,2.9,2.4s-1,2.4-3.1,2.4
		C101.3,23.2,100.8,23.1,100.2,23.1L100.2,23.1z"/>
	<path class="st1" d="M130.8,27c0.1-0.1,0.1-0.3,0-0.5L122.6,7c-0.1-0.2-0.3-0.3-0.5-0.3h-3c-0.2,0-0.4,0.1-0.5,0.3l-8.2,19.5
		c-0.1,0.2,0,0.3,0,0.5c0.1,0.1,0.2,0.2,0.4,0.2h3.4c0.2,0,0.4-0.1,0.5-0.3l1.9-4.7h7.7l1.9,4.7c0.1,0.2,0.3,0.3,0.5,0.3h3.6
		C130.6,27.2,130.7,27.1,130.8,27z M122.6,18.1h-4.2l2.1-5L122.6,18.1z"/>
	<path class="st1" d="M149,6.8h-3.4c-0.3,0-0.5,0.2-0.5,0.5v7.4h-7.9V7.3c0-0.3-0.2-0.5-0.5-0.5h-3.4c-0.3,0-0.5,0.2-0.5,0.5v19.5
		c0,0.3,0.2,0.5,0.5,0.5h3.4c0.3,0,0.5-0.2,0.5-0.5V19h7.9v7.8c0,0.3,0.2,0.5,0.5,0.5h3.4c0.3,0,0.5-0.2,0.5-0.5V7.3
		C149.5,7,149.3,6.8,149,6.8z"/>
	<path class="st1" d="M163.2,6.4c-0.2,0-0.4,0-0.6,0c-2.8,0.1-5.3,1.2-7.2,3.2s-2.9,4.6-2.8,7.3c0,6.2,4.4,10.6,10.6,10.6
		c0.1,0,0.3,0,0.4,0c0.1,0,0.2,0,0.3,0c5.7-0.1,10.2-4.9,10.1-10.6C173.9,10.8,169.5,6.4,163.2,6.4z M169.3,17
		c0,3.7-2.4,6.3-5.9,6.4c-0.1,0-0.1,0-0.2,0H163c-1.6-0.1-3.1-0.7-4.2-1.9c-1.1-1.2-1.7-2.7-1.6-4.4c0-3.7,2.5-6.4,6.1-6.4
		c0.1,0,0.2,0,0.3,0C166.9,10.8,169.4,13.7,169.3,17z"/>
	<path class="st1" d="M187.7,16.4c1.4-1,2.2-2.6,2.2-4.4c0-2-0.9-5.3-6.9-5.3c-1.9,0-4.4,0.1-5.6,0.1c-0.3,0-0.5,0.2-0.5,0.5v19.5
		c0,0.3,0.2,0.5,0.5,0.5c1.1,0.1,3.6,0.1,5.5,0.1c4.9,0,7.8-2.4,7.7-6.3C190.6,19.1,189.5,17.2,187.7,16.4z M183.1,14.8h-1.8v-4
		c0.5,0,1,0,1.6,0c1,0,2.6,0.3,2.6,1.9C185.5,14.6,183.8,14.8,183.1,14.8z M186.1,20.8c0,1.5-1,2.3-3.1,2.3c-0.6,0-1.2,0-1.7-0.1
		v-4.2h1.9C185.1,18.8,186.1,19.5,186.1,20.8z"/>
	<path class="st1" d="M37.6,5.5c-0.1,0-0.1,0-0.2,0H3.6c-0.2,0-0.3,0.1-0.5,0.2C2.9,5.8,2.8,6,2.8,6.2v6.5c0,0.4,0.3,0.7,0.7,0.7
		h6.3v17l6.9,3.5c0.3,0.1,0.6,0,0.8-0.3l0.1-0.1v-20h6v19.9c0,0.2,0.1,0.3,0.2,0.4c0.1,0.1,0.3,0.2,0.4,0.2l0,0h0.2l7-3.5v-17h6.3
		c0.4,0,0.7-0.3,0.7-0.7V6.4C38.2,5.9,37.9,5.6,37.6,5.5z"/>
	<rect x="2.8" y="36.7" class="st1" width="35.6" height="4.1"/>
	<polygon class="st1" points="49.8,38.7 49.8,32.6 48.8,32.6 48.8,40.4 49.8,40.4 54.9,34.2 54.9,40.4 55.9,40.4 55.9,32.6 55,32.6 
			"/>
	<polygon class="st1" points="62.9,40.4 63.9,40.4 63.9,33.5 68.9,33.5 68.9,40.4 69.9,40.4 69.9,32.6 62.9,32.6 	"/>
	<path class="st1" d="M75.5,32.6c-0.6,0-1.2,0.1-1.8,0.3c-0.5,0.2-1,0.4-1.4,0.8l0.5,0.8c0.3-0.3,0.7-0.5,1.2-0.7s0.9-0.2,1.4-0.2
		c0.6,0,1.2,0.1,1.6,0.5s0.6,1,0.5,1.5V36H75c-0.8-0.1-1.6,0.1-2.3,0.6c-0.5,0.4-0.7,1-0.7,1.6s0.3,1.3,0.8,1.6
		c0.6,0.4,1.3,0.7,2.1,0.6c0.6,0,1.1-0.1,1.6-0.3c0.4-0.2,0.8-0.5,1-1v1.2h1v-4.8c0.1-0.8-0.2-1.7-0.8-2.3
		C77.2,32.7,76.4,32.5,75.5,32.6z M77.6,38c-0.2,0.5-0.5,0.9-1,1.2s-1,0.4-1.5,0.4s-1-0.1-1.5-0.4c-0.3-0.2-0.5-0.6-0.5-1.1
		c0-0.9,0.7-1.4,2-1.4h2.4L77.6,38L77.6,38z"/>
	<path class="st1" d="M87.5,33c-0.6-0.3-1.3-0.5-1.9-0.5s-1.2,0.1-1.8,0.4c-0.5,0.3-0.9,0.7-1.3,1.2v-1.5h-1v10.6h1v-4.3
		c0.3,0.5,0.7,0.9,1.3,1.1c0.5,0.3,1.1,0.4,1.7,0.4c0.7,0,1.4-0.2,2-0.5s1.1-0.8,1.4-1.4c0.3-0.6,0.5-1.4,0.5-2.1
		c0-0.7-0.2-1.4-0.5-2C88.5,33.8,88.1,33.3,87.5,33z M87.9,38c-0.2,0.4-0.6,0.8-1,1.1l0,0c-0.9,0.5-2.1,0.5-3,0
		c-0.4-0.3-0.8-0.6-1-1.1c-0.3-0.5-0.4-1-0.4-1.5s0.1-1.1,0.4-1.6c0.2-0.4,0.6-0.8,1-1.1c0.9-0.5,2.1-0.5,3,0c0.4,0.3,0.8,0.6,1,1.1
		c0.3,0.5,0.4,1,0.4,1.6C88.3,37,88.2,37.6,87.9,38z"/>
	<polygon class="st1" points="89.9,33.5 92.8,33.5 92.8,40.4 93.9,40.4 93.9,33.5 96.8,33.5 96.8,32.6 89.9,32.6 	"/>
	<polygon class="st1" points="104.2,36 99.3,36 99.3,32.6 98.3,32.6 98.3,40.4 99.3,40.4 99.3,36.9 104.2,36.9 104.2,40.4 
		105.2,40.4 105.2,32.6 104.2,32.6 	"/>
	<path class="st1" d="M113.4,33.1c-1.2-0.7-2.7-0.7-3.9,0c-0.6,0.3-1,0.8-1.4,1.4c-0.3,0.6-0.5,1.3-0.5,2s0.2,1.4,0.5,2
		s0.8,1.1,1.4,1.5c0.7,0.3,1.4,0.5,2.1,0.5c0.6,0,1.2-0.1,1.7-0.3s0.9-0.6,1.3-1l-0.6-0.7c-0.3,0.3-0.6,0.6-1,0.8s-0.9,0.3-1.3,0.3
		c-0.8,0-1.5-0.2-2.1-0.8c-0.6-0.5-0.9-1.2-0.9-2h6.5l0.1-0.2c0-0.7-0.2-1.4-0.5-2C114.4,33.9,113.9,33.4,113.4,33.1z M108.6,36
		c0-0.7,0.4-1.4,0.9-1.9c1.1-0.9,2.7-0.9,3.8,0c0.5,0.5,0.8,1.2,0.9,1.9H108.6z"/>
	<path class="st1" d="M123.5,33c-0.6-0.3-1.3-0.5-2-0.5c-0.6,0-1.2,0.1-1.8,0.4c-0.5,0.3-0.9,0.7-1.3,1.2v-1.5h-1v10.7h1.1V39
		c0.3,0.5,0.7,0.9,1.3,1.2c0.5,0.3,1.1,0.4,1.7,0.4c0.7,0,1.4-0.2,2-0.5s1.1-0.8,1.4-1.4c0.3-0.6,0.5-1.4,0.5-2.1
		c0-0.7-0.2-1.4-0.5-2C124.5,33.8,124.1,33.3,123.5,33z M123.9,38c-0.2,0.5-0.6,0.8-1,1.1l0,0c-0.9,0.5-2.1,0.5-3,0
		c-0.4-0.3-0.8-0.6-1-1.1c-0.3-0.5-0.4-1-0.4-1.6c0-0.5,0.1-1.1,0.4-1.6c0.2-0.4,0.6-0.8,1-1.1c0.9-0.5,2.1-0.5,3,0
		c0.4,0.3,0.8,0.6,1,1.1c0.3,0.5,0.4,1,0.4,1.6S124.2,37.5,123.9,38z"/>
	<path class="st1" d="M130.9,35.3h-2.2v-2.7h-1v7.8h3.1c0.8,0.1,1.7-0.2,2.4-0.6c0.6-0.5,0.9-1.2,0.8-1.9c0-0.7-0.2-1.4-0.8-1.8
		C132.5,35.5,131.7,35.2,130.9,35.3z M132.3,39.2L132.3,39.2c-0.5,0.3-1.1,0.5-1.6,0.4h-2v-3.5h2c0.6,0,1.2,0.1,1.6,0.4
		c0.4,0.3,0.6,0.8,0.6,1.3C132.9,38.3,132.7,38.8,132.3,39.2z"/>
	<rect x="135.2" y="32.6" class="st1" width="1" height="7.8"/>
</g>
</svg>
